<svg width="73" height="76" viewBox="0 0 73 76" fill="none" xmlns="http://www.w3.org/2000/svg">
<path d="M0 70.7586H73V76H0V70.7586ZM58.6607 26.2069H15.6429C14.2604 26.2083 12.9349 26.7609 11.9573 27.7436C10.9798 28.7262 10.43 30.0586 10.4286 31.4483V52.4138C10.4327 55.8878 11.8074 59.2183 14.2512 61.6747C16.695 64.1312 20.0083 65.5131 23.4643 65.5172H44.3214C47.7774 65.5131 51.0907 64.1312 53.5345 61.6747C55.9783 59.2183 57.353 55.8878 57.3571 52.4138V49.7931H58.6607C61.7723 49.7931 64.7564 48.5506 66.9566 46.339C69.1568 44.1273 70.3929 41.1277 70.3929 38C70.3929 34.8723 69.1568 31.8727 66.9566 29.661C64.7564 27.4494 61.7723 26.2069 58.6607 26.2069V26.2069ZM52.1429 52.4138C52.1408 54.4983 51.3161 56.4968 49.8497 57.9708C48.3834 59.4448 46.3952 60.2738 44.3214 60.2759H23.4643C21.3905 60.2738 19.4023 59.4448 17.936 57.9708C16.4696 56.4968 15.6449 54.4983 15.6429 52.4138V31.4483H52.1429V52.4138ZM58.6607 44.5517H57.3571V31.4483H58.6607C60.3894 31.4483 62.0472 32.1385 63.2695 33.3672C64.4919 34.5959 65.1786 36.2624 65.1786 38C65.1786 39.7376 64.4919 41.4041 63.2695 42.6328C62.0472 43.8615 60.3894 44.5517 58.6607 44.5517ZM44.3214 20.9655H39.1071V20.5829C39.111 19.6088 38.8431 18.6532 38.3338 17.8245C37.8246 16.9958 37.0945 16.3271 36.2263 15.8945L29.2261 12.3801C27.4902 11.5141 26.0304 10.1767 25.0121 8.51941C23.9937 6.86212 23.4575 4.95124 23.4643 3.00331V0H28.6786V3.00331C28.6754 3.97724 28.9435 4.93262 29.4527 5.76124C29.9618 6.58985 30.6916 7.2586 31.5595 7.69172L38.557 11.2061C40.2932 12.072 41.7533 13.4093 42.7721 15.0665C43.7909 16.7238 44.3276 18.6348 44.3214 20.5829V20.9655Z" fill="#545454"/>
</svg>
