<svg width="44" height="35" viewBox="0 0 44 35" fill="none" xmlns="http://www.w3.org/2000/svg">
<path d="M44 4.15164C42.3819 4.85321 40.6437 5.32725 38.8164 5.54151C40.7018 4.43756 42.1125 2.70008 42.785 0.653256C41.0135 1.68284 39.0748 2.40756 37.0529 2.7959C35.6933 1.37543 33.8925 0.433922 31.93 0.117546C29.9675 -0.198829 27.9532 0.127629 26.1997 1.04624C24.4463 1.96484 23.0518 3.42421 22.2328 5.19775C21.4139 6.97129 21.2162 8.95978 21.6706 10.8545C18.0811 10.6782 14.5697 9.76526 11.3642 8.17507C8.15862 6.58488 5.33062 4.35294 3.06368 1.62408C2.28856 2.93242 1.84286 4.44933 1.84286 6.06485C1.842 7.51918 2.20801 8.95124 2.90842 10.234C3.60884 11.5167 4.622 12.6104 5.85801 13.4181C4.42456 13.3735 3.02274 12.9945 1.76922 12.3126V12.4264C1.76908 14.4662 2.49015 16.4432 3.8101 18.0219C5.13004 19.6007 6.96755 20.684 9.01083 21.088C7.68107 21.4401 6.28692 21.492 4.93367 21.2397C5.51017 22.9948 6.63313 24.5295 8.14534 25.6291C9.65756 26.7287 11.4833 27.338 13.367 27.3718C10.1693 29.8281 6.22016 31.1605 2.15485 31.1546C1.43472 31.1548 0.715201 31.1136 0 31.0314C4.12653 33.6275 8.93011 35.0053 13.836 35C30.4431 35 39.5217 21.5412 39.5217 9.86851C39.5217 9.48928 39.512 9.10626 39.4946 8.72703C41.2605 7.47742 42.7848 5.93002 43.9961 4.15733L44 4.15164V4.15164Z" fill="#252525"/>
</svg>
